# xmcd CD database file
#
# Track frame offsets:
#	150
#	55145
#	90141
#
# Disc length: 2263 seconds
#
# Revision: 0
# Processed by: cddbd v1.5.1PL0 Copyright (c) Steve Scherf et al.
# Submitted via: CDex 1.51
#
DISCID=1508d503
DTITLE=Emily Remler - Live at the Cock and Lion Room [CD2]
DYEAR=1983
DGENRE=Jazz
TTITLE0=Pedals
TTITLE1=Road Song
TTITLE2=In Your Own Sweet Way/ drum solo/ So What(head)
EXTD=YEAR: 1983
EXTT0=
EXTT1=
EXTT2=
PLAYORDER=
